<?xml version="1.0" encoding="iso-8859-1"?>
<!-- Uploaded to: SVG Repo, www.svgrepo.com, Generator: SVG Repo Mixer Tools -->
<svg height="800px" width="800px" version="1.1" id="Layer_1" xmlns="http://www.w3.org/2000/svg" xmlns:xlink="http://www.w3.org/1999/xlink" 
	 viewBox="0 0 504.121 504.121" xml:space="preserve">
<polyline style="fill:#9DB8C1;" points="184.091,465.469 252.061,161.404 320.023,465.469 "/>
<polyline style="fill:#C0D8E2;" points="184.091,465.469 252.061,231.619 320.023,465.469 "/>
<path style="fill:#E21445;" d="M320.007,477.56c-5.671,0-10.728-3.994-11.871-9.752l-56.076-284.514l-56.084,284.514
	c-1.3,6.554-7.704,10.831-14.21,9.523c-6.554-1.284-10.815-7.648-9.523-14.202l67.938-297.015c1.126-5.671,6.097-9.752,11.878-9.752
	c5.782,0,10.736,4.088,11.863,9.752l67.954,297.015c1.292,6.554-2.97,12.918-9.523,14.202
	C321.559,477.489,320.779,477.56,320.007,477.56z"/>
<path style="fill:#0C5196;" d="M392.427,504.121c-31.248-43.867-82.4-72.57-140.367-72.57c-57.958,0-109.127,28.704-140.367,72.57
	H392.427z"/>
<path style="fill:#0E253A;" d="M392.427,504.121c-31.248-43.867-82.4-52.76-140.367-52.76c-57.958,0-109.127,8.893-140.367,52.76
	H392.427z"/>
<circle style="fill:#E21445;" cx="252.061" cy="149.478" r="26.711"/>
<path style="fill:#FF2966;" d="M225.35,149.478c0-14.761,11.957-26.719,26.711-26.719s26.711,11.957,26.711,26.719"/>
<path style="fill:#FFA9A9;" d="M262.442,131.653c0,2.773-4.655,0.819-10.382,0.819s-10.374,1.953-10.374-0.819
	c0-2.781,4.647-5.025,10.374-5.025C257.787,126.627,262.442,128.872,262.442,131.653z"/>
<g>
	<path style="fill:#E21445;" d="M279.646,245.734c0,1.67-1.347,3.025-3.017,3.025h-44.355c-1.662,0-3.033-1.355-3.033-3.025l0,0
		c0-1.67,1.371-3.025,3.033-3.025h44.355C278.299,242.71,279.646,244.064,279.646,245.734L279.646,245.734z"/>
	<path style="fill:#E21445;" d="M279.646,271.264c0,1.67-1.347,3.025-3.017,3.025h-44.355c-1.662,0-3.033-1.355-3.033-3.025l0,0
		c0-1.67,1.371-3.025,3.033-3.025h44.355C278.299,268.247,279.646,269.602,279.646,271.264L279.646,271.264z"/>
	<path style="fill:#E21445;" d="M279.646,296.801c0,1.67-1.804,3.025-4.041,3.025h-59.274c-2.221,0-4.041-1.355-4.041-3.025l0,0
		c0-1.67,1.812-3.025,4.041-3.025h59.274C277.842,293.776,279.646,295.131,279.646,296.801L279.646,296.801z"/>
	<path style="fill:#E21445;" d="M288.901,322.33c0,1.662-2.127,3.025-4.742,3.025h-69.49c-2.607,0-4.734-1.363-4.734-3.025l0,0
		c0-1.67,2.127-3.033,4.734-3.033h69.49C286.774,319.297,288.901,320.66,288.901,322.33L288.901,322.33z"/>
	<path style="fill:#E21445;" d="M295.116,347.851c0,1.686-2.363,3.033-5.262,3.033h-77.005c-2.907,0-5.262-1.347-5.262-3.033l0,0
		c0-1.662,2.355-3.017,5.262-3.017h77.005C292.753,344.834,295.116,346.189,295.116,347.851L295.116,347.851z"/>
	<path style="fill:#E21445;" d="M302.339,373.388c0,1.662-2.599,3.017-5.805,3.017h-85.15c-3.198,0-5.805-1.355-5.805-3.017l0,0
		c0-1.678,2.607-3.033,5.805-3.033h85.15C299.74,370.363,302.339,371.71,302.339,373.388L302.339,373.388z"/>
	<path style="fill:#E21445;" d="M303.678,398.917c0,1.67-2.71,3.033-6.049,3.033h-88.702c-3.348,0-6.049-1.363-6.049-3.033l0,0
		c0-1.67,2.702-3.025,6.049-3.025h88.702C300.968,395.892,303.678,397.247,303.678,398.917L303.678,398.917z"/>
	<path style="fill:#E21445;" d="M313.76,424.446c0,1.67-3.395,3.025-7.578,3.025H195.016c-4.183,0-7.585-1.355-7.585-3.025l0,0
		c0-1.67,3.403-3.025,7.585-3.025h111.167C310.366,421.421,313.76,422.776,313.76,424.446L313.76,424.446z"/>
</g>
<path style="fill:#8DF4FF;" d="M363.724,57.626c-3.135,3.159-8.279,3.159-11.445,0c-55.249-55.272-145.164-55.272-200.428,0
	c-3.167,3.159-8.287,3.159-11.437,0c-3.174-3.174-3.174-8.302,0-11.445c61.566-61.574,161.76-61.574,223.319,0
	C366.89,49.331,366.89,54.451,363.724,57.626z"/>
<path style="fill:#39E3FF;" d="M333.673,84.604c-2.308,2.308-6.065,2.308-8.365,0c-40.377-40.369-106.102-40.369-146.479,0
	c-2.308,2.308-6.065,2.308-8.357,0c-2.316-2.308-2.316-6.065,0-8.365c44.985-44.993,118.185-45.001,163.186,0
	C335.966,78.547,335.981,82.296,333.673,84.604z"/>
<path style="fill:#00CFFF;" d="M307.42,108.14c-1.568,1.575-4.112,1.575-5.671,0c-27.396-27.388-71.971-27.388-99.36,0.008
	c-1.575,1.568-4.112,1.568-5.687-0.008c-1.568-1.552-1.568-4.096,0-5.679c30.531-30.515,80.187-30.523,110.718,0
	C309.003,104.052,309.003,106.589,307.42,108.14z"/>
</svg>