<?xml version="1.0" encoding="iso-8859-1"?>
<!-- Uploaded to: SVG Repo, www.svgrepo.com, Generator: SVG Repo Mixer Tools -->
<svg height="800px" width="800px" version="1.1" id="Layer_1" xmlns="http://www.w3.org/2000/svg" xmlns:xlink="http://www.w3.org/1999/xlink" 
	 viewBox="0 0 504.123 504.123" xml:space="preserve">
<path style="fill:#97B8BF;" d="M98.603,54.973c4.135,76.895,71.168,199.767,153.458,199.767S401.384,131.86,405.536,54.973H98.603z"
	/>
<path style="fill:#AA2102;" d="M140.705,102.235c3.017,47.482,51.665,123.345,111.356,123.345
	c59.723,0,108.355-75.863,111.356-123.345H140.705z"/>
<path style="fill:#1964DB;" d="M433.491,62.275c0,1.985-1.615,3.592-3.584,3.592H74.232c-1.985,0-3.6-1.607-3.6-3.592V3.6
	c0-2.001,1.615-3.6,3.6-3.6h355.675c1.969,0,3.584,1.599,3.584,3.6V62.275z"/>
<path style="fill:#177ADD;" d="M429.907,0H74.232c-1.985,0-3.6,1.599-3.6,3.6v26.498c0,1.985,1.615,3.584,3.6,3.584h355.675
	c1.969,0,3.584-1.599,3.584-3.584V3.6C433.491,1.599,431.876,0,429.907,0z"/>
<path style="fill:#C63205;" d="M143.738,120.336h216.663c1.615-6.317,2.662-12.422,3.017-18.101H140.705
	C141.076,107.914,142.123,114.026,143.738,120.336z"/>
<path style="fill:#97B8BF;" d="M405.536,449.15c-4.151-76.895-71.184-199.759-153.474-199.759S102.739,372.263,98.603,449.15
	H405.536z"/>
<path style="fill:#AA2102;" d="M371.972,442.108c-3.245-59.093-55.619-158.862-119.91-158.862s-116.649,99.769-119.895,158.862
	H371.972z"/>
<path style="fill:#1964DB;" d="M70.632,441.856c0-1.993,1.615-3.6,3.6-3.6h355.675c1.969,0,3.584,1.607,3.584,3.6v58.667
	c0,2.001-1.615,3.6-3.584,3.6H74.232c-1.985,0-3.6-1.599-3.6-3.6V441.856z"/>
<path style="fill:#177ADD;" d="M74.232,504.123h355.675c1.969,0,3.584-1.599,3.584-3.6v-26.482c0-2.001-1.615-3.6-3.584-3.6H74.232
	c-1.985,0-3.6,1.599-3.6,3.6v26.482C70.632,502.524,72.247,504.123,74.232,504.123z"/>
<path style="fill:#87ADB2;" d="M140.044,401.896h224.043C346.75,346.34,303.199,279.56,252.054,279.56
	S157.381,346.348,140.044,401.896z"/>
<path style="fill:#AA2102;" d="M245.524,411.451c0,3.616,2.922,6.538,6.538,6.538l0,0c3.615,0,6.538-2.922,6.538-6.538V219.396
	c0-3.616-2.922-6.538-6.538-6.538l0,0c-3.616,0-6.538,2.922-6.538,6.538V411.451z"/>
</svg>