<?xml version="1.0" encoding="utf-8" ?>
<svg xmlns="http://www.w3.org/2000/svg" xmlns:xlink="http://www.w3.org/1999/xlink" width="1024" height="1024">
	<path fill="#666695" d="M577.238 962.56C577.918 963.357 577.71 963.016 578.141 963.843C578.831 965.164 579.305 966.342 580.685 967.1C581.274 967.423 581.793 967.616 582.466 967.604C589.127 967.493 595.826 966.931 602.525 966.855C664.934 966.148 727.375 967.323 789.799 966.513C797.424 966.414 805.027 965.445 812.637 965.333C818.565 965.247 824.66 967.604 830.444 965.51C835.017 963.856 839.886 963.269 844.534 961.882C850.544 960.089 854.361 956.213 861.05 955.662C866.382 955.222 870.903 951.967 875.878 950.099C879.441 948.761 883.154 947.805 886.749 946.493L887.582 947.124C870.797 957.855 847.144 965.799 827.45 968.934C822.971 969.647 818.443 969.919 813.948 970.499C809.338 971.094 804.763 972.044 800.114 972.303C781.612 973.337 762.955 972.288 744.447 972.194L660.49 972.212L588.331 972.274C578.112 972.241 565.047 972.935 555.176 971.961C556.574 971.75 557.932 971.47 559.31 971.153C561.857 971.12 564.442 971.145 566.98 970.915C570.914 970.559 572.886 969.145 575.398 966.208L577.238 962.56Z"/>
	<defs>
		<linearGradient id="gradient_0" gradientUnits="userSpaceOnUse" x1="248.49681" y1="867.44891" x2="846.91901" y2="14.311954">
			<stop offset="0" stop-color="#676797"/>
			<stop offset="1" stop-color="#CAA2BD"/>
		</linearGradient>
	</defs>
	<path fill="url(#gradient_0)" d="M37.7259 716.853L37.4597 350.199L37.514 250.385C37.5363 222.259 35.725 192.737 41.5335 165.088C42.7377 159.356 44.7547 153.69 46.5677 148.123C56.1056 118.838 71.1767 94.0083 92.9026 72.1734C127.946 36.9541 179.404 18.0149 228.735 17.9383L632.752 17.9582L743.795 17.9443C761.386 17.9423 779.322 17.1568 796.864 18.0588C802.084 18.3272 807.315 19.077 812.515 19.6109C817.989 20.173 823.51 20.5357 828.922 21.5723C862.565 28.0165 902.074 46.7347 926.271 70.9699C950.238 94.9752 964.945 118.149 974.698 150.595C978.198 162.24 980.87 173.947 982.119 186.062C983.23 196.838 983.102 207.983 983.268 218.823Q983.888 243.422 983.664 268.028L983.535 631.708L983.505 739.812C983.47 765.037 984.351 790.395 981.379 815.494C979.618 830.365 969.143 860.69 961.107 873.399C955.192 888.762 927.077 919.075 914.17 929.129C905.762 936.051 897.217 942.028 887.582 947.124L886.749 946.493C883.154 947.805 879.441 948.761 875.878 950.099C870.903 951.967 866.382 955.222 861.05 955.662C854.361 956.213 850.544 960.089 844.534 961.882C839.886 963.269 835.017 963.856 830.444 965.51C824.66 967.604 818.565 965.247 812.637 965.333C805.027 965.445 797.424 966.414 789.799 966.513C727.375 967.323 664.934 966.148 602.525 966.855C595.826 966.931 589.127 967.493 582.466 967.604C581.793 967.616 581.274 967.423 580.685 967.1C579.305 966.342 578.831 965.164 578.141 963.843C577.71 963.016 577.918 963.357 577.238 962.56L575.398 966.208C572.886 969.145 570.914 970.559 566.98 970.915C564.442 971.145 561.857 971.12 559.31 971.153C557.932 971.47 556.574 971.75 555.176 971.961C533.51 972.773 511.56 972.037 489.868 971.997L384.523 972.143L269.038 972.601C253.809 972.588 238.506 972.835 223.284 972.392Q220.869 972.342 218.456 972.231Q216.042 972.121 213.633 971.95Q211.223 971.778 208.819 971.547Q206.414 971.315 204.016 971.024Q201.618 970.732 199.228 970.38Q196.838 970.028 194.458 969.616Q192.078 969.205 189.708 968.733Q187.339 968.262 184.982 967.732Q182.626 967.201 180.283 966.611Q177.94 966.022 175.613 965.374Q173.286 964.725 170.976 964.019Q168.666 963.313 166.374 962.549Q164.082 961.785 161.811 960.963Q159.539 960.142 157.288 959.264Q155.038 958.386 152.81 957.452Q150.582 956.518 148.379 955.528Q146.175 954.538 143.997 953.493Q141.819 952.448 139.668 951.349Q137.517 950.25 135.394 949.097Q133.271 947.945 131.178 946.739Q129.084 945.533 127.022 944.276Q124.96 943.018 122.929 941.709Q120.899 940.399 118.902 939.04Q116.906 937.68 114.944 936.271Q112.982 934.862 111.056 933.403Q109.13 931.945 107.241 930.439Q105.352 928.933 103.502 927.38Q101.651 925.828 99.8404 924.229Q98.0295 922.63 96.2593 920.986Q94.4891 919.342 92.7607 917.655Q91.0322 915.967 89.3467 914.237Q87.6612 912.506 86.0196 910.734C61.8917 885.133 44.8169 850.915 40.0006 816.005C37.5139 797.98 37.5542 779.914 37.5396 761.765C37.5276 746.808 37.2852 731.804 37.7259 716.853Z"/>
	<path fill="#BDABC7" d="M800.31 644.911C802.074 645.283 803.643 645.662 804.72 647.133C804.452 648.695 804.041 648.953 803.001 650.101C802.223 650.564 801.855 650.683 800.998 650.865C799.972 650.241 799.735 650.065 799.449 648.797C799.14 647.426 799.643 646.071 800.31 644.911Z"/>
	<path fill="#666695" d="M196.817 788.268C199.008 789.643 201.327 791.055 203.588 792.307L204.144 792.611L204.329 793.412C203.201 793.611 202.349 794.415 201.131 794.504C199.39 794.632 198.138 794.146 196.955 792.97C196.263 791.26 196.523 790.055 196.817 788.268Z"/>
	<path fill="#666695" d="M614.091 376.613C625.4 376.375 636.801 376.508 648.11 376.773C640.094 378.757 616.897 379.623 608.291 379.008C610.394 378.334 612.537 378.604 614.575 377.683C614.665 377.124 614.654 377.515 614.091 376.613Z"/>
	<path fill="#666695" d="M599.863 825.76C604.32 822.822 611.261 821.003 616.269 818.775C623.429 815.59 630.406 811.816 637.33 808.145L637.118 809.226C633.985 811.175 630.525 812.464 627.359 814.347C623.877 816.418 620.861 819.079 617.494 821.293C613.729 823.77 602.018 830.037 597.788 830.482C594.916 830.783 589.303 835.148 587.27 834.383C589.873 830.972 598.211 831.126 600.211 827.462L598.164 827.462C598.375 826.988 599.47 826.733 599.951 826.534L599.863 825.76Z"/>
	<path fill="#573C68" d="M564.299 376.374Q578.626 376.535 592.953 376.417C599.985 376.736 607.052 376.617 614.091 376.613C614.654 377.515 614.665 377.124 614.575 377.683C612.537 378.604 610.394 378.334 608.291 379.008C594.508 379.058 580.16 380.759 566.513 378.428L564.299 376.374Z"/>
	<path fill="#666695" d="M536.555 570.307Q566.825 570.609 597.095 570.371C605.476 570.38 614.06 570.026 622.421 570.438L623.026 570.497C631.56 571.244 640.188 570.306 648.749 570.934C642.695 572.215 636.165 571.299 630 571.251L589.949 571.217C582.018 571.221 573.487 570.573 565.651 571.828C575.094 572.167 584.55 572.025 593.998 572.007C598.927 571.998 605.917 571.158 610.607 572.519L610.781 573.071C607.195 574.078 579.679 573.139 573.729 573.213C566.813 573.3 560.079 574.049 553.124 573.743C549.231 573.571 545.195 573.296 541.501 571.962L544.114 572.114C541.567 571.05 539.321 571.261 536.642 571.221L536.555 570.307Z"/>
	<path fill="#666695" d="M913.853 928.615C914.557 927.748 914.302 927.99 914.987 927.363C919.313 923.405 922.536 918.472 926.793 914.482L928.113 914.949L928.591 914.37L928.333 914.866Q930.989 912.125 933.611 909.351C933.247 908.406 933.344 907.935 933.562 906.959C934.98 905.42 935.814 906.955 937.163 905.67C941.714 901.336 947.404 892.942 951.001 887.597C953.131 884.432 958.221 875.069 961.107 873.399C955.192 888.762 927.077 919.075 914.17 929.129C905.762 936.051 897.217 942.028 887.582 947.124L886.749 946.493C887.446 946.275 888.201 946.078 888.768 945.588C889.925 944.587 891.307 942.517 891.41 940.982L890.642 940.889C889.184 941.885 887.858 942.352 886.176 942.864C887.682 941.052 890.759 940.493 892.877 939.557C897.317 937.596 912.705 925.078 916.449 921.102C916.57 920.974 916.688 920.841 916.807 920.711L917.188 920.658L917.283 920.163L917.534 920.535C916.507 923.801 910.182 927.587 907.438 929.707C908.036 929.689 907.721 929.735 908.461 929.487C910.409 928.836 911.784 928.507 913.853 928.615Z"/>
	<defs>
		<linearGradient id="gradient_1" gradientUnits="userSpaceOnUse" x1="571.09283" y1="830.11493" x2="572.39667" y2="842.78326">
			<stop offset="0" stop-color="#5C4E79"/>
			<stop offset="1" stop-color="#7B6F93"/>
		</linearGradient>
	</defs>
	<path fill="url(#gradient_1)" d="M599.863 825.76L599.951 826.534C599.47 826.733 598.375 826.988 598.164 827.462L600.211 827.462C598.211 831.126 589.873 830.972 587.27 834.383C576.93 839.322 553.094 841.427 546.431 846.301C545.993 846.622 545.398 847.769 545.056 848.255C545.196 846.382 545.402 844.556 546.16 842.815C546.973 840.95 548.381 839.216 550.154 838.192C554.282 835.81 576.227 832.458 582.394 831.031C588.324 829.66 594.124 827.777 599.863 825.76Z"/>
	<path fill="#666695" d="M364.428 536.174C364.616 547.356 363.771 558.868 365.449 569.939C385.905 570.821 406.468 570.118 426.938 570.115L536.555 570.307L536.642 571.221C530.9 571.237 495.384 570.439 492.184 571.574C482.961 574.844 475.393 573.432 465.966 572.563C459.895 572.003 453.734 571.646 447.641 571.363C437.296 570.882 426.715 571.111 416.357 571.369C405.499 571.64 394.461 572.867 383.662 574.111C378.607 574.694 373.573 575.942 368.461 575.86C363.639 575.782 362.538 574.493 359.379 571.187C359.423 571.013 359.468 570.839 359.51 570.663C359.579 570.372 359.632 570.076 359.711 569.787C361.717 562.467 357.326 554.789 359.298 548.395C360.059 545.925 363.131 545.026 363.925 542.915C364.694 540.872 363.246 538.207 364.428 536.174Z"/>
	<path fill="#666695" d="M184.19 389.629C186.414 394.148 188.515 398.935 191.242 403.17C204.148 423.212 226.674 441.11 249.28 448.785C263.774 453.706 273.582 455.828 289 456.319C311.034 456.943 333.353 457.026 355.393 456.471C361.631 456.56 368.098 455.999 374.295 456.553C368.344 457.941 361.678 456.78 355.532 457.75C348.446 456.423 342.261 459.634 335.459 459.779C332.241 459.849 329.502 457.829 326.316 457.738C313.872 457.382 301.425 457.596 288.978 457.129C287.687 457.123 286.455 457.396 285.314 458.005C284.239 458.579 284.152 458.455 283.796 459.679L285.569 460.297L285.327 460.988C281.282 461.502 271.318 459.949 267.355 458.572C264.969 457.743 262.698 456.247 260.575 454.885C259.621 454.273 258.807 453.724 257.693 453.426C255.476 452.831 252.971 452.868 250.692 452.512C246.437 451.847 241.885 450.556 237.847 449.07C235.645 448.261 235.014 447.407 234.05 445.299C231.741 440.244 224.372 437.162 219.816 434.101C218.974 434.263 218.067 434.479 217.21 434.511C214.995 434.593 212.533 431.803 211.011 430.43C209.399 428.974 207.673 427.061 205.84 425.906C202.022 423.501 195.393 422.018 192.552 418.645C192.366 418.425 192.198 418.19 192.021 417.962L191.615 418.386L191.252 417.615C191.6 417.104 192.221 416.32 192.42 415.703C192.845 414.387 192.604 413.451 192.132 412.211C191.209 411.479 191.204 411.467 190.028 411.466C190.001 411.374 189.963 411.285 189.948 411.19C188.969 404.643 187.408 397.911 184.311 391.994L184.176 392.075L183.226 391.426L184.092 390.83L183.54 390.069L184.19 389.629Z"/>
	<path fill="#BDABC7" d="M241.947 484.375C244.516 484.897 246.384 486.104 248.597 487.431C243.746 494.218 239.474 500.186 236.929 508.222C234.858 514.765 232.692 521.597 231.739 528.395C228.929 548.442 236.617 568.384 245.694 585.87C247.781 586.911 250.607 588.081 251.79 590.158C251.182 590.741 250.435 591.602 249.707 592.008C248.9 592.457 248.378 592.503 247.503 592.353C244.68 591.867 242.596 589.18 241.126 586.939C237.47 581.367 235.386 574.708 233.107 568.487C223.25 541.584 224.602 528.036 234.039 501.476C236.103 495.667 240.559 491.214 241.816 485.054C241.862 484.828 241.904 484.601 241.947 484.375Z"/>
	<path fill="#BDABC7" d="M768.612 476.364C770.691 477.374 772.429 478.65 773.942 480.414C782.356 490.219 788.651 507.404 790.373 520.218C791.349 527.484 791.141 535.173 790.679 542.49C789.626 559.168 782.593 578.85 769.84 590.141C769.388 590.56 768.916 590.842 768.395 591.168L767.547 590.626C767.336 590.102 766.727 589.029 766.699 588.515C766.629 587.239 771.869 581.975 772.921 580.465C778.793 572.041 784.856 553.975 785.388 543.633C785.834 534.976 786.25 525.408 784.282 516.926C782.479 509.157 779.757 500.799 775.869 493.84C773.622 489.819 770.548 485.831 768.941 481.523C768.331 479.89 768.517 478.071 768.612 476.364Z"/>
	<path fill="#BDABC7" d="M776.58 474.18C781.37 475.496 785.247 480.939 787.742 485.007C790.64 489.735 792.236 494.632 794.004 499.848C800.579 519.247 802.415 537.54 797.48 557.631C793.531 573.707 786.114 591.458 771.276 600.429C769.896 600.825 768.838 601.059 767.473 600.545C767.264 599.24 768.207 598.32 769.05 597.368C775.398 590.21 785.572 580.752 788.694 571.625C790.066 567.613 790.498 563.243 791.59 559.14C792.839 554.447 794.596 549.963 794.995 545.078Q795.239 541.753 795.281 538.419Q795.323 535.086 795.163 531.756Q795.003 528.425 794.641 525.111Q794.28 521.797 793.719 518.511Q793.157 515.224 792.398 511.978Q791.639 508.732 790.684 505.537Q789.73 502.343 788.584 499.212Q787.438 496.082 786.104 493.026C783.372 486.785 775.972 481.572 776.58 474.18Z"/>
	<path fill="#666695" d="M512.389 441.098C521.767 439.092 540.966 440.46 551.378 440.457L641.343 440.432C645.456 440.675 654.166 439.59 657.614 441.333L658.172 444.446C657.787 444.689 645.288 446.111 644.04 446.164C638.808 446.388 633.499 446.004 628.254 446.005L581.499 445.613C569.556 445.467 557.545 446.084 545.582 446.055C533.387 446.027 520.915 444.66 508.864 446.798C506.759 445.883 506.037 445.557 503.739 446.419L503.557 446.113C506.321 444.278 509.217 442.122 512.389 441.098Z"/>
	<path fill="#666695" d="M697.954 485.182C697.278 518.181 697.626 551.267 697.609 584.277L697.584 613.947C697.605 627.564 697.835 640.704 694.481 654.064L694.162 654.03L693.854 653.408C694.488 650.522 694.871 647.02 693.68 644.195C693.206 643.073 692.735 642.687 691.637 642.269C690.709 643.499 690.611 645.492 690.339 647.019L690.317 646.543L689.986 646.264C690.569 645.787 690.822 640.879 690.931 639.869C692.418 626.08 692.289 612.316 692.373 598.464C692.515 574.9 692.067 551.368 691.944 527.807C691.895 518.198 690.708 496.563 693.074 488.1C693.093 489.058 693.039 489.76 693.528 490.622C693.926 491.322 694.279 491.179 695.005 491.33C698.61 490.173 696.206 487.574 697.954 485.182Z"/>
	<path fill="#BDABC7" d="M227.091 453.875C228.551 454.037 228.567 454.134 229.637 455.163C230.292 458.837 219.14 469.462 216.477 473.673C211.807 481.059 207.355 489.032 204.708 497.385C198.214 517.876 198.391 554.045 204.539 574.526C207.327 583.816 211.707 592.616 216.459 601.038C219.431 606.306 231.429 620.726 232.059 623.984C232.322 625.343 232.416 625.567 231.63 626.68C230.007 625.238 228.362 623.801 226.869 622.224C220.852 615.871 215.836 608.299 211.476 600.736C197.527 576.536 194.148 557.312 194.889 529.58C195.542 505.173 201.297 487.8 215.406 468.172C218.989 463.188 222.624 458.114 227.091 453.875Z"/>
	<path fill="#BDABC7" d="M789.47 448.598C790.991 449.166 792.142 450.281 793.249 451.439C796.63 454.974 799.078 459.407 801.809 463.449C819.058 488.985 821.982 512.364 820.947 542.442C819.873 573.632 807.772 602.903 784.829 624.279L783.758 624.61L782.755 623.971L782.629 622.958C784.917 617.546 789.672 613.327 793.242 608.734Q794.719 606.87 796.106 604.937Q797.494 603.005 798.788 601.01Q800.083 599.014 801.282 596.96Q802.481 594.906 803.582 592.797Q804.682 590.689 805.683 588.531Q806.683 586.373 807.58 584.17Q808.478 581.967 809.27 579.724Q810.062 577.482 810.748 575.204C812.936 567.966 813.822 560.413 814.6 552.917C817.255 527.326 815.82 499.181 804.373 475.642C803.13 473.088 801.837 470.499 800.305 468.103C798.228 464.857 788.167 452.582 787.858 450.152L789.47 448.598Z"/>
	<path fill="#B3B0B7" d="M206.128 439.366L207.151 439.857C208.695 442.347 205.648 445.529 204.187 447.54C190.001 467.075 180.827 497.122 178.359 521.017C175.65 547.243 180.538 579.953 190.586 604.38C192.295 608.533 194.774 612.334 196.69 616.392C200.634 624.746 202.209 630.055 207.677 638.073C209.68 641.009 212.469 643.3 214.689 646.085C215.815 647.497 217.341 649.249 217.132 651.159C215.993 651.761 215.933 651.478 214.742 651.17Q210.975 648.317 207.928 644.705C202.09 637.788 198.408 629.942 194.386 621.935C177.928 589.174 170.045 556.255 173.434 519.525C174.544 507.495 178.119 496.422 181.9 485.043C187.162 469.206 192.826 450.388 206.128 439.366Z"/>
	<path fill="#BDABC7" d="M807.523 424.133C807.853 424.234 807.989 424.265 808.357 424.476C815.099 428.34 818.696 439.69 822.088 446.213C824.115 450.108 826.71 453.709 828.841 457.557C834.846 468.406 839.786 479.731 843.027 491.704C847.577 508.512 848.957 532.645 846.984 550.008C845.344 564.436 839.642 586.782 833.883 600.04C832.117 604.106 829.795 607.96 827.597 611.803Q827.843 612.522 828.076 613.246C829.647 618.181 828.532 620.871 826.227 625.322C823.682 630.237 815.424 644.61 809.978 646.057C808.899 646.344 809.332 646.368 808.385 645.873C808.444 642.781 811.71 639.304 813.591 636.979C818.638 629.645 822.504 622.847 825.423 614.401C821.837 617.897 818.738 620.699 814.203 622.895C817.464 617.217 821.635 612.14 824.91 606.496C828.101 600.996 830.297 594.443 832.522 588.488C841.867 563.481 844.255 537.249 841.491 510.832C840.979 505.935 840.656 500.789 839.508 495.992C838.218 490.601 835.093 485.553 833.04 480.399C831.871 477.465 831.319 474.357 830.326 471.371C829.017 467.438 827.005 463.688 825.09 460.025C820.904 452.017 816.889 443.434 812.12 435.785C809.821 432.098 805.618 428.919 803.861 425.076C804.925 424.197 806.174 424.306 807.523 424.133Z"/>
	<path fill="#B3B0B7" d="M190.028 411.466C191.204 411.467 191.209 411.479 192.132 412.211C192.604 413.451 192.845 414.387 192.42 415.703C192.221 416.32 191.6 417.104 191.252 417.615C191.026 417.831 190.794 418.042 190.573 418.263C185.139 423.704 181.46 430.066 177.689 436.679C160.2 467.348 152.14 503.994 152.463 539.148C152.811 576.952 163.336 615.846 181.238 649.051C183.966 654.111 186.622 659.593 190.022 664.234C192.764 667.977 196.227 670.542 199.278 673.921C200.166 674.903 200.46 675.525 200.45 676.826L199.42 677.338C197.548 677.215 196.115 676.651 194.57 675.569C189.313 671.884 185.719 665.125 182.442 659.741C164.949 630.995 156.173 602.633 150.061 569.785C148.205 559.811 147.888 550.204 147.842 540.101C147.81 533.145 147.581 526.066 148.109 519.13C150.045 493.676 158.244 462.958 170.257 440.456C175.906 429.877 183.098 421.677 189.672 411.999L190.028 411.466Z"/>
	<path fill="#BDABC7" d="M825.956 401.24C826.151 401.259 826.345 401.28 826.54 401.296C827.198 401.35 827.832 401.356 828.449 401.623C835.613 404.721 853.971 438.276 857.889 447.181C865.634 464.782 873.36 489.378 875.375 508.469C876.36 517.804 876.07 527.457 876.035 536.83C876.006 544.618 876.232 552.634 875.181 560.365C872.645 579.033 867.344 596.522 861.314 614.279C859.322 620.147 857.505 626.101 855.229 631.868C850.688 643.371 835.686 671.517 824.412 676.428L821.787 675.721C823.608 672.33 826.899 669.387 829.364 666.414C833.209 661.778 836.933 656.738 840.061 651.596C856.191 625.074 867.651 584.269 871.184 553.384C871.948 546.71 871.84 539.681 871.751 532.963C871.243 494.757 860.748 455.697 840.178 423.251C835.69 416.171 830.241 410.187 825.079 403.659C824.967 402.316 825.129 402.334 825.956 401.24Z"/>
	<defs>
		<linearGradient id="gradient_2" gradientUnits="userSpaceOnUse" x1="505.18997" y1="514.63898" x2="505.94717" y2="489.26602">
			<stop offset="0" stop-color="#62517E"/>
			<stop offset="1" stop-color="#726A8E"/>
		</linearGradient>
	</defs>
	<path fill="url(#gradient_2)" d="M363.355 464.057L364.349 463.808C364.983 477.558 363.739 491.424 364.972 505.143C378.633 505.618 392.348 504.903 405.991 505.409C413.177 505.899 420.542 505.594 427.748 505.591L466.42 505.573L590.216 505.561C612.199 505.558 634.55 504.753 656.501 505.804C656.161 506.256 652.586 506.186 651.584 506.379C650.71 507.193 650.518 507.14 650.25 508.364C651.389 508.003 652.334 507.357 653.425 507.92L653.133 508.687C643.001 512.599 551.761 509.989 533.771 509.988C517.193 509.987 500.628 510.693 484.053 510.851C465.15 511.031 446.167 510.664 427.255 510.533C407.289 510.394 385.909 506.174 366.359 511.864C364.597 510.06 362.66 508.246 361.356 506.073C361.242 505.882 361.138 505.684 361.025 505.491C360.389 504.398 360.261 503.764 360.337 502.477C360.667 496.868 362.08 491.19 362.811 485.61C363.728 478.604 363.673 471.103 363.355 464.057Z"/>
	<path fill="#666695" d="M519.993 763.11C519.887 763.203 519.794 763.312 519.676 763.388C519.043 763.796 518.49 763.78 517.773 763.718C513.875 763.378 510.154 765.494 506.27 766.226C497.374 767.902 479.363 767.175 470.754 764.481C466.484 763.146 461.961 763.81 457.676 762.532C453.184 761.193 448.809 759.408 444.363 757.919C440.052 756.475 435.464 755.308 431.34 753.396C427.149 751.452 423.402 748.455 419.556 745.921C413.819 742.142 407.742 738.785 402.37 734.485C397.214 730.357 392.332 725.102 387.434 720.603C383.669 717.145 380.901 712.522 378.086 708.292C362.081 684.241 355.259 655.886 354.515 627.234C354.366 621.526 354.299 611.598 357.221 606.461C358.488 604.232 361.296 601.871 363.092 600.013C363.171 598.776 363.338 597.67 363.625 596.464C364.081 600.353 362.965 613.411 364.354 615.874C366.224 655.157 382.295 692.562 411.539 719.14C431.727 737.487 454.655 748.739 481.127 754.827C486.275 756.011 497.303 756.439 501.099 757.91L501.504 758.879C501.733 758.968 501.968 759.045 502.193 759.145C503.325 759.651 502.773 759.353 503.564 760.155C505.801 762.424 513.883 762.446 517.041 762.291C518.386 762.225 519.316 762.043 520.56 761.565C522.324 760.888 524.676 761.121 526.563 761.109L526.867 761.319C525.352 761.669 523.894 761.989 522.344 762.14C521.292 762.243 520.813 762.382 519.993 763.11Z"/>
	<path fill="#F0F0EE" d="M364.774 525.885C377.421 523.56 394.163 524.698 407.166 524.765L470.586 524.807L596.911 524.601L634.809 524.768C643.251 524.819 651.643 524.631 660.065 525.339C662.208 530.261 661.13 562.522 660.941 569.911Q648.913 570.163 636.883 570.196C632.135 570.209 627.131 569.905 622.421 570.438C614.06 570.026 605.476 570.38 597.095 570.371Q566.825 570.609 536.555 570.307L426.938 570.115C406.468 570.118 385.905 570.821 365.449 569.939C363.771 558.868 364.616 547.356 364.428 536.174L364.774 525.885Z"/>
	<path fill="#F0F0EE" d="M374.295 456.553C382.442 456.391 390.629 456.84 398.781 456.914Q418.699 457.04 438.617 456.909C451.574 456.941 465.643 457.531 478.396 454.926C486.902 453.188 495.595 449.54 503.557 446.113L503.739 446.419C503.586 446.52 503.434 446.624 503.279 446.723C499.163 449.354 488.37 450.652 487.116 455.387C486.789 456.624 486.832 457.75 486.899 459.016L487.491 458.968C491.098 458.712 498.192 458.091 501.468 459.329L500.59 459.626C506.379 460.252 512.462 459.916 518.289 459.913L549.494 459.865C586.546 459.802 623.717 459.3 660.756 460.019C661.818 473.091 661.768 491.588 661.007 504.753C637.286 505.483 613.548 505.022 589.821 505.009L480.651 505.029L432.769 504.999C423.96 504.999 414.738 504.471 405.991 505.409C392.348 504.903 378.633 505.618 364.972 505.143C363.739 491.424 364.983 477.558 364.349 463.808L363.355 464.057L362.584 463.802C362.975 462.26 364.756 461.277 366.005 460.277C362.457 460.36 359.329 460.5 355.972 459.107L355.532 457.75C361.678 456.78 368.344 457.941 374.295 456.553Z"/>
	<path fill="#666695" d="M374.295 456.553C382.442 456.391 390.629 456.84 398.781 456.914Q418.699 457.04 438.617 456.909C451.574 456.941 465.643 457.531 478.396 454.926C486.902 453.188 495.595 449.54 503.557 446.113L503.739 446.419C503.586 446.52 503.434 446.624 503.279 446.723C499.163 449.354 488.37 450.652 487.116 455.387C486.789 456.624 486.832 457.75 486.899 459.016L487.491 458.968C491.098 458.712 498.192 458.091 501.468 459.329L500.59 459.626C469.766 459.376 438.816 459.521 407.992 459.862C396.15 459.993 383.97 459.169 372.185 459.989C370.034 460.139 367.364 460.288 365.702 461.85C365.123 462.394 364.701 463.105 364.349 463.808L363.355 464.057L362.584 463.802C362.975 462.26 364.756 461.277 366.005 460.277C362.457 460.36 359.329 460.5 355.972 459.107L355.532 457.75C361.678 456.78 368.344 457.941 374.295 456.553Z"/>
	<path fill="#F0F0EE" d="M360.019 403.509C360.058 402.443 360.285 401.145 360.86 400.217C361.579 399.056 362.645 398.746 363.862 398.329C364.018 398.275 364.176 398.225 364.332 398.174L364.323 396.491C367.139 393.193 371.559 396.286 374.815 394.254C374.329 393.477 373.917 392.771 373.584 391.914C369.907 382.462 364.416 384.285 357.56 379.288C355.469 377.764 354.209 375.57 353.983 372.986C352.905 360.618 359.535 343.835 365.608 333.392C368.349 328.68 371.754 324.352 374.409 319.594C377.505 314.048 379.143 308.208 383.423 303.302C387.129 299.054 393.215 297.493 396.485 293.24C399.051 289.903 399.454 284.929 402.717 280.926C404.286 279 407.994 276.022 410.472 275.781C408.103 278.324 405.047 279.984 402.647 282.46C400.921 284.35 400.307 285.6 400.386 288.172C400.406 288.801 400.479 289.402 400.604 290.017L400.242 290.608C396.98 295.842 392.316 299.829 388.872 304.85C386.06 308.949 383.865 313.675 381.586 318.088C375.303 330.257 370.379 342.714 367.533 356.159C366.68 360.188 366.307 364.258 365.545 368.282L365.156 376.396Q425.202 375.678 485.247 376.402C502.434 376.525 519.771 375.858 536.933 376.483C540.663 376.5 544.502 376.322 548.217 376.587C553.488 376.5 559.054 376.062 564.299 376.374L566.513 378.428C564.875 379.029 563.956 379.365 562.234 378.943C560.762 384.185 559.286 389.319 556.941 394.26L557.113 395.272L561.265 395.915Q592.799 395.521 624.336 395.522C636.435 395.506 648.982 394.943 661.002 396.307C661.54 410.71 661.765 425.729 660.803 440.105C654.535 440.065 647.531 439.462 641.343 440.432L551.378 440.457C540.966 440.46 521.767 439.092 512.389 441.098C509.217 442.122 506.321 444.278 503.557 446.113C495.595 449.54 486.902 453.188 478.396 454.926C465.643 457.531 451.574 456.941 438.617 456.909Q418.699 457.041 398.781 456.914C390.629 456.84 382.442 456.391 374.295 456.553C368.098 455.999 361.631 456.56 355.393 456.471C360.619 454.149 368.615 455.536 374.324 455.283L374.05 454.307L373.432 455.108C369.914 453.428 365.964 453.333 362.438 451.758C357.984 449.768 354.174 446.515 352.459 441.847C348.68 431.563 350.586 418.223 355.282 408.569C356.652 407.757 358.006 406.936 359.338 406.062C359.725 405.203 359.871 404.437 360.019 403.509Z"/>
	<path fill="#B3B0B7" d="M360.019 403.509C360.058 402.443 360.285 401.145 360.86 400.217C361.579 399.056 362.645 398.746 363.862 398.329C364.018 398.275 364.176 398.225 364.332 398.174L364.323 396.491C367.139 393.193 371.559 396.286 374.815 394.254C374.329 393.477 373.917 392.771 373.584 391.914C369.907 382.462 364.416 384.285 357.56 379.288C355.469 377.764 354.209 375.57 353.983 372.986C352.905 360.618 359.535 343.835 365.608 333.392C368.349 328.68 371.754 324.352 374.409 319.594C377.505 314.048 379.143 308.208 383.423 303.302C387.129 299.054 393.215 297.493 396.485 293.24C399.051 289.903 399.454 284.929 402.717 280.926C404.286 279 407.994 276.022 410.472 275.781C408.103 278.324 405.047 279.984 402.647 282.46C400.921 284.35 400.307 285.6 400.386 288.172C400.406 288.801 400.479 289.402 400.604 290.017L400.242 290.608C396.98 295.842 392.316 299.829 388.872 304.85C386.06 308.949 383.865 313.675 381.586 318.088C375.303 330.257 370.379 342.714 367.533 356.159C366.68 360.188 366.307 364.258 365.545 368.282L365.156 376.396Q425.202 375.678 485.247 376.402C502.434 376.525 519.771 375.858 536.933 376.483C540.663 376.5 544.502 376.322 548.217 376.587C553.488 376.5 559.054 376.062 564.299 376.374L566.513 378.428C564.875 379.029 563.956 379.365 562.234 378.943C560.762 384.185 559.286 389.319 556.941 394.26L557.113 395.272L561.265 395.915C559.588 395.907 557.966 395.841 556.297 395.674C548.044 394.852 539.242 395.43 530.937 395.445L482.766 395.515L409.012 395.501C394.414 395.505 379.57 394.972 365.008 396.016C365.002 399.863 365.256 403.93 364.547 407.715C364.381 418.285 363.488 429.539 364.918 440.017C392.951 441.138 421.132 439.272 449.183 440.279Q466.458 440.585 483.735 440.378C490.197 440.342 496.774 439.988 503.219 440.461C506.266 440.687 509.337 440.997 512.389 441.098C509.217 442.122 506.321 444.278 503.557 446.113C495.595 449.54 486.902 453.188 478.396 454.926C465.643 457.531 451.574 456.941 438.617 456.909Q418.699 457.041 398.781 456.914C390.629 456.84 382.442 456.391 374.295 456.553C368.098 455.999 361.631 456.56 355.393 456.471C360.619 454.149 368.615 455.536 374.324 455.283L374.05 454.307L373.432 455.108C369.914 453.428 365.964 453.333 362.438 451.758C357.984 449.768 354.174 446.515 352.459 441.847C348.68 431.563 350.586 418.223 355.282 408.569C356.652 407.757 358.006 406.936 359.338 406.062C359.725 405.203 359.871 404.437 360.019 403.509Z"/>
	<defs>
		<linearGradient id="gradient_3" gradientUnits="userSpaceOnUse" x1="463.61121" y1="381.29095" x2="463.43655" y2="374.55231">
			<stop offset="0" stop-color="#666468"/>
			<stop offset="1" stop-color="#85818F"/>
		</linearGradient>
	</defs>
	<path fill="url(#gradient_3)" d="M562.234 378.943L561.934 377.755C560.723 377.127 556.958 378.898 555.375 379.241Q552.939 379.785 550.451 379.982Q547.962 380.179 545.471 380.025C519.877 378.65 494.027 379.399 468.379 379.063C457.921 378.927 447.48 377.28 437.05 377.524C431.631 377.651 426.291 378.789 420.878 379.019C410.201 379.471 399.55 379.142 388.837 379.713C382.054 380.075 373.716 381.601 367.109 380.628C370.356 380.485 374.85 380.916 377.423 378.893C375.178 378.761 367.106 377.631 365.43 376.676C364.178 375.963 364.114 375.506 363.623 374.225C364.029 372.087 364.327 370.127 365.545 368.282L365.156 376.396Q425.202 375.678 485.247 376.402C502.434 376.525 519.771 375.858 536.933 376.483C540.663 376.5 544.502 376.322 548.217 376.587C553.488 376.5 559.054 376.062 564.299 376.374L566.513 378.428C564.875 379.029 563.956 379.365 562.234 378.943Z"/>
	<path fill="#757274" d="M536.933 376.483C540.663 376.5 544.502 376.322 548.217 376.587C551.115 377.232 553.562 376.94 556.439 377.002L555.808 377.927C552.509 379.356 549.262 377.648 545.974 377.27C542.871 376.914 540.095 377.133 536.933 376.483Z"/>
	<path fill="#828188" d="M363.239 399.984C364.683 402.342 364.362 405.027 364.547 407.715C364.381 418.285 363.488 429.539 364.918 440.017C392.951 441.138 421.132 439.272 449.183 440.279Q466.458 440.585 483.735 440.378C490.197 440.342 496.774 439.988 503.219 440.461C499.315 444.403 487.408 444.033 482.158 444.057L450.647 443.97C445.733 443.956 439.457 444.648 434.712 443.582L434.749 443.321C434.942 443.343 435.134 443.376 435.327 443.386C436.864 443.47 446.715 442.258 447.54 441.598L447.11 441.16C429.616 441.401 411.899 440.478 394.436 441.271C393.121 441.33 391.532 441.366 390.63 442.355C393.958 442.442 397.133 443.144 400.489 443.202C408.588 443.344 426.605 441.511 433.849 444.121L433.184 444.522C417.98 444.696 402.822 445.215 387.611 445.106C381.627 445.063 374.956 445.371 369.051 444.432C366.932 444.095 364.563 443.377 362.869 442.009C361.143 440.615 360.703 438.503 360.451 436.402C359.947 432.191 360.155 411.656 360.871 406.916C361.22 404.613 361.791 401.834 363.239 399.984Z"/>
	<path fill="#F0F0EE" d="M527.12 240.335C527.301 240.386 527.482 240.44 527.664 240.49C536.936 243.032 546.525 243.729 555.854 246.531C584.58 255.16 611.905 273.016 630.536 296.643C635.308 302.696 639.406 309.488 643.263 316.156C652.558 332.222 661.449 357.65 660.787 376.427C649.157 375.469 637.08 376.061 625.397 376.067C614.727 376.073 603.563 375.45 592.953 376.417Q578.626 376.535 564.299 376.374C559.054 376.062 553.488 376.5 548.217 376.587C544.502 376.322 540.663 376.5 536.933 376.483C519.771 375.858 502.434 376.525 485.247 376.402Q425.202 375.678 365.156 376.396L365.545 368.282C366.307 364.258 366.68 360.188 367.533 356.159C370.379 342.714 375.303 330.257 381.586 318.088C383.865 313.675 386.06 308.949 388.872 304.85C392.316 299.829 396.98 295.842 400.242 290.608L400.604 290.017C400.479 289.402 400.406 288.801 400.386 288.172C400.307 285.6 400.921 284.35 402.647 282.46C405.047 279.984 408.103 278.324 410.472 275.781C413.776 273.097 417.913 267.88 422.262 267.407L423.545 268.639C425.553 268.755 430.662 264.794 432.671 263.536C444.143 256.351 456.699 250.863 469.632 246.789C483.952 242.279 499.109 241.146 514.034 240.479C518.147 240.295 522.218 241.346 526.303 240.516C526.576 240.461 526.847 240.395 527.12 240.335Z"/>
	<path fill="#828188" d="M402.647 282.46L406.609 282.508C404.388 284.916 402.44 287.303 400.604 290.017C400.479 289.402 400.406 288.801 400.386 288.172C400.307 285.6 400.921 284.35 402.647 282.46Z"/>
	<path fill="#757274" d="M410.472 275.781C413.776 273.097 417.913 267.88 422.262 267.407L423.545 268.639C417.327 272.597 412.038 277.565 406.609 282.508L402.647 282.46C405.047 279.984 408.103 278.324 410.472 275.781Z"/>
	<path fill="#F0F0EE" d="M364.354 615.874C364.476 610.52 363.305 596.136 365.185 592.022C376.233 589.529 390.529 590.919 401.887 590.963L454.42 590.848L585.463 590.648C610.632 590.629 636.167 589.781 661.285 591.14C661.394 599.725 661.863 608.506 661.357 617.072C659.05 656.142 645.11 687.557 617.721 715.527C605.679 727.823 585.36 741.362 569.437 747.644C564.019 749.782 557.512 750.294 552.405 752.766C552.629 753.913 552.628 753.907 551.99 754.833C550.813 756.543 542.665 761.614 540.513 761.72C538.443 761.822 537.06 760.572 534.896 761.292C531.357 762.47 523.68 763.664 519.993 763.11C520.813 762.382 521.292 762.243 522.344 762.14C523.894 761.989 525.352 761.669 526.867 761.319L526.563 761.109C524.676 761.121 522.324 760.888 520.56 761.565C519.316 762.043 518.386 762.225 517.041 762.291C513.883 762.446 505.801 762.424 503.564 760.155C502.773 759.353 503.325 759.651 502.193 759.145C501.968 759.045 501.733 758.968 501.504 758.879L501.099 757.91C497.303 756.439 486.275 756.011 481.127 754.827C454.655 748.739 431.727 737.487 411.539 719.14C382.295 692.562 366.224 655.157 364.354 615.874Z"/>
	<defs>
		<linearGradient id="gradient_4" gradientUnits="userSpaceOnUse" x1="526.83026" y1="752.27753" x2="530.18878" y2="763.68341">
			<stop offset="0" stop-color="#47416C"/>
			<stop offset="1" stop-color="#776B90"/>
		</linearGradient>
	</defs>
	<path fill="url(#gradient_4)" d="M501.099 757.91C518.708 758.549 535.365 757.385 552.405 752.766C552.629 753.913 552.628 753.907 551.99 754.833C550.813 756.543 542.665 761.614 540.513 761.72C538.443 761.822 537.06 760.572 534.896 761.292C531.357 762.47 523.68 763.664 519.993 763.11C520.813 762.382 521.292 762.243 522.344 762.14C523.894 761.989 525.352 761.669 526.867 761.319L526.563 761.109C524.676 761.121 522.324 760.888 520.56 761.565C519.316 762.043 518.386 762.225 517.041 762.291C513.883 762.446 505.801 762.424 503.564 760.155C502.773 759.353 503.325 759.651 502.193 759.145C501.968 759.045 501.733 758.968 501.504 758.879L501.099 757.91Z"/>
	<path fill="#F0F0EE" d="M697.954 485.182C698.509 481.026 698.944 476.948 702.515 474.221C707.211 470.635 736.221 471.362 742.505 472.313C745.718 472.799 748.147 474.555 749.974 477.216C751.375 479.256 751.879 481.285 752.025 483.74C752.48 491.4 751.832 499.306 751.743 506.998C751.603 519.105 751.766 531.226 751.764 543.335L751.676 596.092C751.667 606.825 752.008 617.7 751.45 628.417C750.876 639.454 748.775 651.672 746.46 662.486C734.196 719.749 697.035 770.078 648.016 801.553C645.323 803.283 639.181 806.269 637.33 808.145C630.406 811.816 623.429 815.59 616.269 818.775C611.261 821.003 604.32 822.822 599.863 825.76C594.124 827.777 588.324 829.66 582.394 831.031C576.227 832.458 554.282 835.81 550.154 838.192C548.381 839.216 546.973 840.95 546.16 842.815C545.402 844.556 545.196 846.382 545.056 848.255C545.707 868.691 545.265 889.306 545.204 909.764C545.178 918.592 544.566 927.745 545.261 936.538C545.418 938.522 545.492 940.475 546.817 942.061C555.378 947.454 568.508 935.657 577.97 953.344C577.989 956.527 577.806 959.427 577.238 962.56L575.398 966.208C572.886 969.145 570.914 970.559 566.98 970.915C564.442 971.145 561.857 971.12 559.31 971.153L491.731 971.118C481.004 971.106 469.499 971.934 458.902 970.673C454.692 970.172 452.624 968.273 450.095 964.996C449.247 963.782 448.777 962.269 448.618 960.809C448.158 956.567 448.473 951.152 451.426 947.838C457.514 941.004 470.688 943.761 478.99 943.2C480.159 940.983 480.809 939.067 481.032 936.552C482.014 925.455 481.112 913.493 481.092 902.315C481.061 885.532 481.624 868.566 481.03 851.804C480.82 845.88 479.661 840.553 474.079 837.392C469.484 834.79 461.51 834.941 456.257 833.976C452.107 833.214 447.965 832.195 443.882 831.133Q440.377 830.195 436.902 829.149Q433.428 828.104 429.987 826.952Q426.546 825.8 423.143 824.542Q419.739 823.285 416.376 821.923Q413.012 820.561 409.693 819.096Q406.373 817.632 403.1 816.066Q399.827 814.499 396.604 812.833Q393.38 811.167 390.21 809.402Q387.039 807.637 383.925 805.776Q380.81 803.914 377.755 801.958Q374.699 800.001 371.705 797.951Q368.711 795.901 365.781 793.76Q362.852 791.619 359.989 789.389Q357.127 787.159 354.335 784.842Q351.543 782.524 348.824 780.122Q346.104 777.72 343.46 775.235C303.42 737.577 280.667 688.727 275.438 634.176C273.943 618.587 274.568 602.734 274.595 587.082L274.524 527.406C274.55 514.885 274.949 502.266 274.561 489.757C274.894 485.469 273.987 478.918 277.474 475.884C279.692 473.954 282.76 472.802 285.62 472.284C291.385 471.241 309.921 471.371 315.863 471.961C319.159 472.288 323.414 473.249 325.631 475.954C329.467 480.633 327.608 494.211 327.538 500.377C327.218 528.468 327.548 556.607 327.591 584.702C327.618 602.701 326.393 621.391 328.41 639.27C333.389 683.394 359.324 723.766 394.205 750.529Q396.601 752.372 399.055 754.138Q401.509 755.905 404.017 757.592Q406.526 759.279 409.087 760.885Q411.648 762.492 414.259 764.016Q416.87 765.54 419.528 766.981Q422.186 768.421 424.889 769.776Q427.591 771.131 430.335 772.4Q433.08 773.668 435.863 774.849Q438.646 776.029 441.465 777.12Q444.285 778.212 447.137 779.213Q449.99 780.214 452.873 781.124Q455.756 782.034 458.667 782.851Q461.577 783.669 464.512 784.394Q467.447 785.118 470.404 785.749Q473.361 786.38 476.336 786.917Q479.311 787.453 482.302 787.895C534.827 795.397 587.652 783.545 630.166 751.447C661.274 727.96 686.571 692.659 694.481 654.064C697.835 640.704 697.605 627.564 697.584 613.947L697.609 584.277C697.626 551.267 697.278 518.181 697.954 485.182Z"/>
	<path fill="#B3B0B7" d="M450.095 964.996C452.485 966.521 454.81 968.085 457.101 969.755C462.747 969.837 471.711 970.968 476.911 968.856C473.653 966.728 465.241 967.481 461.205 967.598L460.633 968.067L460.619 967.578L460.194 967.431C469.893 965.427 489.237 966.733 499.734 966.855L548.915 966.95C557.517 967.041 567.022 968.113 575.398 966.208C572.886 969.145 570.914 970.559 566.98 970.915C564.442 971.145 561.857 971.12 559.31 971.153L491.731 971.118C481.004 971.106 469.499 971.934 458.902 970.673C454.692 970.172 452.624 968.273 450.095 964.996Z"/>
	<path fill="#666695" d="M37.7259 716.853L39.004 717.046C40.1823 718.406 38.727 719.399 39.3192 721.067C39.8816 720.324 39.7244 720.673 39.9727 719.819C40.8257 716.886 43.1092 714.532 43.6825 711.717C45.0999 704.759 42.8345 697.209 44.2684 690.119C44.4995 688.977 44.7082 687.359 45.7052 686.705L47.4011 687.494L47.7366 687.302L47.6423 685.139L48.4866 685.767L49.1196 685.115C49.2651 685.106 49.4117 685.109 49.556 685.088C51.0061 684.884 51.9515 684.328 52.8754 683.234C53.4797 682.518 53.4852 682.436 54.3945 682.024C59.6712 686.975 57.3136 692.497 59.9665 698.234C62.4956 703.703 68.6245 707.067 71.1077 712.503C72.0059 714.469 72.0255 717.361 72.5138 719.501C73.1724 719.659 73.8047 719.783 74.4757 719.898C75.0489 718.707 75.1222 718.279 76.2146 717.49C80.2531 719.6 81.5624 715.75 86.646 717.732C87.2476 717.966 89.1296 718.646 89.5314 719.097C90.7556 720.473 89.2781 729.358 90.8416 732.441C92.3344 735.385 98.2636 736.424 101.202 737.985C105.458 740.246 106.778 746.444 109.558 748.399C110.433 749.015 112.785 749.322 113.879 749.61C114.087 749.973 114.396 750.531 114.636 750.852C116.603 753.479 124.255 751.03 127.601 751.814C132.389 752.934 134.758 758.915 140.126 759.716C140.321 759.745 140.518 759.761 140.712 759.791C143.309 760.201 145.428 762.521 147.47 764.051C149.834 765.823 153.147 767.243 155.229 769.191C159.076 772.791 158.063 779.244 161.368 783.273C162.695 784.892 163.853 784.892 165.838 785.015L166.459 785.049L166.765 785.964C171.079 787.613 180.059 792.567 183.745 793.17C185.32 793.427 187.557 792.899 189.148 792.694C193.504 794.599 199.969 796.277 201.506 801.404C201.984 803 201.781 804.882 201.958 806.55C202.124 808.118 202.248 809.642 203.057 811.025C209.292 811.501 210.628 814.402 217.447 811.948C219.695 811.139 222.227 810.237 223.259 808.011C227.978 808.293 229.187 812.442 233.077 813.728C234.015 814.038 235.374 813.867 236.374 813.977C252.36 815.734 241.572 823.704 245.723 830.519C247.768 833.877 252.506 834.774 254.903 837.792C255.35 838.356 255.655 838.827 256.247 839.254C260.544 842.354 264.324 846.756 268.273 850.366C271.981 853.755 276.1 856.276 280.039 859.33C282.921 861.565 285.769 864.358 288.82 866.312C290.036 867.091 292.252 866.187 293.652 866.068C295.005 865.952 297.22 868.412 298.208 869.288C299.841 869.541 301.346 870.17 302.881 870.763C307.389 872.504 312.615 870.581 317.142 872.002C321.228 873.284 324.24 878.486 328.268 880.32C328.57 880.457 328.884 880.567 329.182 880.714C331.847 882.027 335.091 881.165 338.039 881.335C338.532 881.363 339.68 881.488 340.121 881.707C340.913 882.101 342.559 884.576 343.238 885.342C345.332 887.703 347.832 889.648 349.808 892.133C352.423 895.42 354.563 899.103 357.571 902.066C360.015 904.473 364.101 903.164 366.225 905.627L366.167 905.43L366.661 906.155L367.633 905.722C372.954 908.031 377.212 914.856 381.832 918.487C382.937 918.342 383.74 918.191 384.813 918.551C385.658 920.933 384.987 924.734 384.846 927.256C386.48 928.49 387.52 927.477 389.226 928.041C390.834 928.573 390.753 936.337 392.248 938.328C393.168 939.554 393.922 939.263 395.278 939.412C396.683 939.566 397.99 939.88 399.385 939.469C404.603 937.933 408.692 931.102 414.719 931.389L414.446 933.039L414.356 932.539C413.334 934.235 411.951 935.281 410.292 936.313L409.784 936.622C409.448 937.337 409.109 937.978 408.677 938.645C408.139 939.477 408.259 938.994 408.283 939.952C410.773 940.451 410.815 940.947 412.298 943.002C415.059 944.294 414.274 938.936 418.377 937.599L419.206 938.101L419.203 940.799C419.566 941.484 419.815 941.737 420.461 942.205C421.21 942.748 421.931 943.346 422.688 943.874C425.883 946.102 430.644 940.752 434.28 940.196C434.77 940.12 435.345 940.091 435.769 939.801C437.248 938.787 438.24 937.942 440.191 937.872C441.753 937.815 441.229 937.502 442.485 937.027C443.757 936.545 446.342 936.703 447.842 936.464C447.136 935.907 447.475 936.135 446.594 935.631L445.925 935.256L445.993 934.539C448.657 933.008 451.48 936.117 454.388 934.836C455.404 934.389 456.009 933.719 456.356 932.697L455.772 931.904L455.918 931.286C455.755 930.969 455.614 930.869 455.764 930.5C456.06 929.771 456.532 929.137 456.807 928.381C457.583 926.25 457.472 924.553 457.69 922.406L460.361 897.739C461.313 889.385 463.505 880.9 463.518 872.481C463.524 868.734 462.992 865.012 461.458 861.565C460.135 858.593 457.718 854.064 454.517 852.929C452.293 852.14 450.244 851.049 448.14 849.988L447.836 850.142C446.76 849.141 436.196 849.211 433.83 848.808C430.436 848.231 427.036 846.359 423.611 845.521C417.68 844.069 411.623 843.729 405.802 841.881C400.526 840.206 394.049 836.602 388.676 835.849C385.391 835.389 384.818 833.174 382.049 832.207C369.048 827.67 356.069 820.59 345.095 812.227C341.097 809.181 332.731 801.856 329.322 798.44C324.927 794.037 320.616 789.22 316.595 784.469C315.148 782.759 313.837 780.397 312.235 778.909C311.522 778.247 310.983 778.089 310.084 777.795C309.07 777.462 308.445 777.295 307.634 776.552C307.76 776.146 308.01 775.375 308.077 774.978C308.563 772.075 299.247 761.211 296.993 758.529C294.951 756.099 292.807 753.606 291.103 750.922C287.856 745.808 276.386 724.761 277.007 719.634C277.22 717.879 273.062 713.252 272.162 711.406C270.982 708.987 270.189 705.932 269.348 703.359C264.49 688.494 262.481 671.404 261.156 655.815C260.183 644.362 261.097 633.328 261.615 621.891C262.031 612.7 262.101 603.513 262.839 594.338C263.277 588.897 264.381 583.491 264.633 578.048C265.109 567.772 264.705 557.353 264.73 547.061Q264.786 524.888 266.4 502.774C266.82 497.319 269.321 494.553 273.151 491.05C274.408 489.9 273.943 487.111 273.972 485.445L274.201 485.225Q274.404 487.489 274.561 489.757C274.949 502.266 274.55 514.885 274.524 527.406L274.595 587.082C274.568 602.734 273.943 618.587 275.438 634.176C280.667 688.727 303.42 737.577 343.46 775.235Q346.104 777.72 348.824 780.122Q351.543 782.524 354.335 784.842Q357.127 787.159 359.989 789.389Q362.852 791.619 365.781 793.76Q368.711 795.901 371.705 797.951Q374.699 800.001 377.755 801.958Q380.81 803.914 383.925 805.776Q387.039 807.637 390.21 809.402Q393.38 811.167 396.604 812.833Q399.827 814.499 403.1 816.066Q406.373 817.632 409.693 819.096Q413.012 820.561 416.376 821.923Q419.739 823.285 423.143 824.542Q426.546 825.8 429.987 826.952Q433.428 828.104 436.902 829.149Q440.377 830.195 443.882 831.133C447.965 832.195 452.107 833.214 456.257 833.976C461.51 834.941 469.484 834.79 474.079 837.392C479.661 840.553 480.82 845.88 481.03 851.804C481.624 868.566 481.061 885.532 481.092 902.315C481.112 913.493 482.014 925.455 481.032 936.552C480.809 939.067 480.159 940.983 478.99 943.2C470.688 943.761 457.514 941.004 451.426 947.838C448.473 951.152 448.158 956.567 448.618 960.809C448.777 962.269 449.247 963.782 450.095 964.996C452.624 968.273 454.692 970.172 458.902 970.673C469.499 971.934 481.004 971.106 491.731 971.118L559.31 971.153C557.932 971.47 556.574 971.75 555.176 971.961C533.51 972.773 511.56 972.037 489.868 971.997L384.523 972.143L269.038 972.601C253.809 972.588 238.506 972.835 223.284 972.392Q220.869 972.342 218.456 972.231Q216.042 972.121 213.633 971.95Q211.223 971.778 208.819 971.547Q206.414 971.315 204.016 971.024Q201.618 970.732 199.228 970.38Q196.838 970.028 194.458 969.616Q192.078 969.205 189.708 968.733Q187.339 968.262 184.982 967.732Q182.626 967.201 180.283 966.611Q177.94 966.022 175.613 965.374Q173.286 964.725 170.976 964.019Q168.666 963.313 166.374 962.549Q164.082 961.785 161.811 960.963Q159.539 960.142 157.288 959.264Q155.038 958.386 152.81 957.452Q150.582 956.518 148.379 955.528Q146.175 954.538 143.997 953.493Q141.819 952.448 139.668 951.349Q137.517 950.25 135.394 949.097Q133.271 947.945 131.178 946.739Q129.084 945.533 127.022 944.276Q124.96 943.018 122.929 941.709Q120.899 940.399 118.902 939.04Q116.906 937.68 114.944 936.271Q112.982 934.862 111.056 933.403Q109.13 931.945 107.241 930.439Q105.352 928.933 103.502 927.38Q101.651 925.828 99.8404 924.229Q98.0295 922.63 96.2593 920.986Q94.4891 919.342 92.7607 917.655Q91.0322 915.967 89.3467 914.237Q87.6612 912.506 86.0196 910.734C61.8917 885.133 44.8169 850.915 40.0006 816.005C37.5139 797.98 37.5542 779.914 37.5396 761.765C37.5276 746.808 37.2852 731.804 37.7259 716.853Z"/>
	<defs>
		<linearGradient id="gradient_5" gradientUnits="userSpaceOnUse" x1="350.49957" y1="455.54367" x2="348.99579" y2="128.44604">
			<stop offset="0" stop-color="#C3C2C5"/>
			<stop offset="1" stop-color="#F6F5EF"/>
		</linearGradient>
	</defs>
	<path fill="url(#gradient_5)" d="M227.479 128.393C235.633 128.607 243.532 131.389 251.086 134.291C271.096 141.977 287.584 151.673 303.206 166.418Q307.879 164.69 312.577 163.029C344.626 151.785 398.102 152.916 428.829 167.638C433.353 164.788 437.004 160.629 441.183 157.301C456.072 145.441 475.203 136.431 493.406 131.073C496.88 130.05 500.775 128.49 504.413 128.894C506 129.648 506.754 130.985 507.447 132.543C514.154 147.618 514.274 180.398 511.607 196.506C510.517 203.09 508.577 209.156 506.158 215.361C517.121 223.309 519.127 231.745 527.12 240.335C526.847 240.395 526.576 240.461 526.303 240.516C522.218 241.346 518.147 240.295 514.034 240.479C499.109 241.146 483.952 242.279 469.632 246.789C456.699 250.863 444.143 256.351 432.671 263.536C430.662 264.794 425.553 268.755 423.545 268.639L422.262 267.407C417.913 267.88 413.776 273.097 410.472 275.781C407.994 276.022 404.286 279 402.717 280.926C399.454 284.929 399.051 289.903 396.485 293.24C393.215 297.493 387.129 299.054 383.423 303.302C379.143 308.208 377.505 314.048 374.409 319.594C371.754 324.352 368.349 328.68 365.608 333.392C359.535 343.835 352.905 360.618 353.983 372.986C354.209 375.57 355.469 377.764 357.56 379.288C364.416 384.285 369.907 382.462 373.584 391.914C373.917 392.771 374.329 393.477 374.815 394.254C371.559 396.286 367.139 393.193 364.323 396.491L364.332 398.174C364.176 398.225 364.018 398.275 363.862 398.329C362.645 398.746 361.579 399.056 360.86 400.217C360.285 401.145 360.058 402.443 360.019 403.509C359.871 404.437 359.725 405.203 359.338 406.062C358.006 406.936 356.652 407.757 355.282 408.569C350.586 418.223 348.68 431.563 352.459 441.847C354.174 446.515 357.984 449.768 362.438 451.758C365.964 453.333 369.914 453.428 373.432 455.108L374.05 454.307L374.324 455.283C368.615 455.536 360.619 454.149 355.393 456.471C333.353 457.026 311.034 456.943 289 456.319C273.582 455.828 263.774 453.706 249.28 448.785C226.674 441.11 204.148 423.212 191.242 403.17C188.515 398.935 186.414 394.148 184.19 389.629C176.442 367.726 173.253 355.202 174.146 331.773C175.702 290.938 196.527 242.431 226.636 214.499C218.112 184.122 219.217 158.424 227.479 128.393Z"/>
</svg>
